<?xml version="1.0" encoding="utf-8"?>
<svg version="1.1" id="Capa_1" xmlns="http://www.w3.org/2000/svg" xmlns:xlink="http://www.w3.org/1999/xlink" x="0px" y="0px"
	 viewBox="-43 95 512 512" style="enable-background:new -43 95 512 512;" xml:space="preserve">
<style type="text/css">
	.st0{fill:#FFFFFF;}
	.st1{fill:#303C42;}
	.st2{fill:#FAFAFA;}
	.st3{fill:#0037FF;}
	.st4{opacity:0.1;enable-background:new    ;}
	.st5{fill:#E0E0E0;}
	.st6{fill:url(#SVGID_1_);}
</style>
<rect x="-43" y="95" class="st0" width="512" height="512"/>
<path class="st1" d="M407.2,384.8l16.5-123.5c0.2-1.7,0.3-3.3,0.3-5c0-13.5-6.7-25.3-16.9-32.6v-41.3c0-18.6-15.1-33.8-33.8-33.8
	H69.6c-18.6,0-33.8,15.1-33.8,33.8v41.3C25.7,230.9,19,242.8,19,256.2c0,1.7,0.1,3.3,0.3,5.1l16.5,123.5L19.3,508.3
	c-0.2,1.7-0.3,3.3-0.3,5c0,22.2,18,40.2,40.2,40.2h324.6c22.2,0,40.2-18,40.2-40.2c0-1.7-0.1-3.3-0.3-5.1L407.2,384.8z"/>
<path class="st2" d="M52.8,182.3c0-9.3,7.6-16.9,16.9-16.9h303.8c9.3,0,16.9,7.6,16.9,16.9v34.4c-2.1-0.3-4.2-0.7-6.5-0.7H59.2
	c-2.2,0-4.3,0.3-6.5,0.7L52.8,182.3L52.8,182.3z"/>
<path class="st3" d="M406.9,510.4c0.1,0.9,0.2,1.9,0.2,2.9c0,12.9-10.5,23.3-23.3,23.3H59.2c-12.9,0-23.3-10.5-23.3-23.3
	c0-1,0.1-1.9,0.2-2.8l16.6-124.6c0.1-0.7,0.1-1.5,0-2.2L36.1,259.1c-0.1-0.9-0.2-1.9-0.2-2.9c0-12.9,10.5-23.3,23.3-23.3h324.6
	c12.9,0,23.3,10.5,23.3,23.3c0,1-0.1,1.9-0.2,2.8l-16.6,124.6c-0.1,0.7-0.1,1.5,0,2.2L406.9,510.4z"/>
<path class="st4" d="M383.8,232.9H59.2c-12.9,0-23.3,10.5-23.3,23.3c0,1,0.1,1.9,0.2,2.9l16.8,125.7l337.3,0L407,259
	c0.1-0.9,0.2-1.9,0.2-2.8C407.1,243.3,396.7,232.9,383.8,232.9z"/>
<g>
	<path class="st0" d="M221.5,342.6c0-27.9-22.7-50.6-50.6-50.6s-50.6,22.7-50.6,50.6c0,4.7,3.8,8.4,8.4,8.4c4.7,0,8.4-3.8,8.4-8.4
		c0-18.6,15.1-33.8,33.8-33.8s33.8,15.1,33.8,33.8c0,18.6-15.1,33.8-33.8,33.8c-4.7,0-8.4,3.8-8.4,8.4c0,4.7,3.8,8.4,8.4,8.4
		c18.6,0,33.8,15.1,33.8,33.8s-15.1,33.7-33.8,33.7s-33.8-15.1-33.8-33.8c0-4.7-3.8-8.4-8.4-8.4c-4.7,0-8.4,3.8-8.4,8.4
		c0,27.9,22.7,50.6,50.6,50.6s50.6-22.7,50.6-50.6c0-17.6-9.1-33.1-22.7-42.2C212.4,375.7,221.5,360.2,221.5,342.6z"/>
	<path class="st0" d="M318.3,292.9c-2.8-1.5-6.1-1.3-8.7,0.4L259,327.1c-3.9,2.6-4.9,7.8-2.3,11.7c2.6,3.9,7.8,4.9,11.7,2.3l37.5-25
		v153c0,4.7,3.8,8.4,8.4,8.4s8.4-3.8,8.4-8.4V300.4C322.8,297.3,321,294.4,318.3,292.9z"/>
</g>
<g>
	<circle class="st5" cx="128.7" cy="190.7" r="8.4"/>
	<circle class="st5" cx="314.3" cy="190.7" r="8.4"/>
</g>
<linearGradient id="SVGID_1_" gradientUnits="userSpaceOnUse" x1="-128.6499" y1="67.1735" x2="-107.4679" y2="77.0479" gradientTransform="matrix(21.3333 0 0 21.3333 2744.9971 -1182.3093)">
	<stop  offset="0" style="stop-color:#FFFFFF;stop-opacity:0.2"/>
	<stop  offset="1" style="stop-color:#FFFFFF;stop-opacity:0"/>
</linearGradient>
<path class="st6" d="M407.2,384.8l16.5-123.5c0.2-1.7,0.3-3.3,0.3-5c0-13.5-6.7-25.3-16.9-32.6v-41.3c0-18.6-15.1-33.8-33.8-33.8
	H69.6c-18.6,0-33.8,15.1-33.8,33.8v41.3C25.7,230.9,19,242.8,19,256.2c0,1.7,0.1,3.3,0.3,5.1l16.5,123.5L19.3,508.3
	c-0.2,1.7-0.3,3.3-0.3,5c0,22.2,18,40.2,40.2,40.2h324.6c22.2,0,40.2-18,40.2-40.2c0-1.7-0.1-3.3-0.3-5.1L407.2,384.8z"/>
</svg>
